<mxfile host="Electron" modified="2024-06-01T05:43:44.346Z" agent="Mozilla/5.0 (X11; Linux x86_64) AppleWebKit/537.36 (KHTML, like Gecko) draw.io/24.4.8 Chrome/124.0.6367.207 Electron/30.0.6 Safari/537.36" etag="6TS0WvvLCz1wYFHyLovI" version="24.4.8" type="device">
  <diagram name="Page-1" id="PPTb9TvJcImoivfIuNoo">
    <mxGraphModel dx="2261" dy="870" grid="1" gridSize="10" guides="1" tooltips="1" connect="1" arrows="1" fold="1" page="1" pageScale="1" pageWidth="827" pageHeight="1169" math="0" shadow="0">
      <root>
        <mxCell id="0" />
        <mxCell id="1" parent="0" />
        <mxCell id="NNj7HxP1JS5fpXCTZeig-1" value="&lt;div style=&quot;&quot;&gt;&lt;span style=&quot;background-color: initial;&quot;&gt;&lt;b style=&quot;&quot;&gt;&lt;font style=&quot;font-size: 40px;&quot;&gt;Masonry DFD&lt;/font&gt;&lt;/b&gt;&lt;/span&gt;&lt;/div&gt;" style="text;html=1;align=center;verticalAlign=middle;whiteSpace=wrap;rounded=0;" parent="1" vertex="1">
          <mxGeometry x="322" width="184" height="150" as="geometry" />
        </mxCell>
        <mxCell id="NNj7HxP1JS5fpXCTZeig-2" value="&lt;font style=&quot;font-size: 20px;&quot;&gt;&lt;u&gt;Level 0: Masonry Framework Communication with MusicBlocks&lt;/u&gt;&lt;/font&gt;" style="text;html=1;align=center;verticalAlign=middle;whiteSpace=wrap;rounded=0;" parent="1" vertex="1">
          <mxGeometry x="150" y="210" width="540" height="30" as="geometry" />
        </mxCell>
        <mxCell id="NNj7HxP1JS5fpXCTZeig-3" value="" style="rounded=0;whiteSpace=wrap;html=1;" parent="1" vertex="1">
          <mxGeometry x="70" y="280" width="720" height="410" as="geometry" />
        </mxCell>
        <mxCell id="NNj7HxP1JS5fpXCTZeig-80" value="&lt;font style=&quot;font-size: 18px;&quot;&gt;Masonry Framework&lt;/font&gt;" style="rounded=0;whiteSpace=wrap;html=1;fillColor=#b0e3e6;strokeColor=#0e8088;" parent="1" vertex="1">
          <mxGeometry x="170" y="500" width="140" height="90" as="geometry" />
        </mxCell>
        <mxCell id="NNj7HxP1JS5fpXCTZeig-81" value="&lt;font style=&quot;font-size: 20px;&quot;&gt;MusicBlocks&lt;/font&gt;" style="text;html=1;align=center;verticalAlign=middle;whiteSpace=wrap;rounded=0;" parent="1" vertex="1">
          <mxGeometry x="384" y="300" width="60" height="30" as="geometry" />
        </mxCell>
        <mxCell id="NNj7HxP1JS5fpXCTZeig-82" value="&lt;font style=&quot;font-size: 18px;&quot;&gt;Syntax Tree&lt;/font&gt;" style="rounded=0;whiteSpace=wrap;html=1;" parent="1" vertex="1">
          <mxGeometry x="480" y="390" width="120" height="60" as="geometry" />
        </mxCell>
        <mxCell id="NNj7HxP1JS5fpXCTZeig-83" value="&lt;font style=&quot;font-size: 18px;&quot;&gt;Engine&lt;/font&gt;" style="rounded=0;whiteSpace=wrap;html=1;" parent="1" vertex="1">
          <mxGeometry x="490" y="555" width="120" height="60" as="geometry" />
        </mxCell>
        <mxCell id="NNj7HxP1JS5fpXCTZeig-86" value="&lt;font style=&quot;font-size: 18px;&quot;&gt;Config&lt;/font&gt;" style="shape=internalStorage;whiteSpace=wrap;html=1;backgroundOutline=1;dx=10;dy=10;" parent="1" vertex="1">
          <mxGeometry x="90" y="330" width="100" height="40" as="geometry" />
        </mxCell>
        <mxCell id="NNj7HxP1JS5fpXCTZeig-87" value="" style="endArrow=classic;startArrow=classic;html=1;rounded=0;exitX=0.143;exitY=-0.033;exitDx=0;exitDy=0;exitPerimeter=0;entryX=0.58;entryY=0.95;entryDx=0;entryDy=0;entryPerimeter=0;" parent="1" source="NNj7HxP1JS5fpXCTZeig-80" target="NNj7HxP1JS5fpXCTZeig-86" edge="1">
          <mxGeometry width="50" height="50" relative="1" as="geometry">
            <mxPoint x="180" y="490" as="sourcePoint" />
            <mxPoint x="230" y="440" as="targetPoint" />
          </mxGeometry>
        </mxCell>
        <mxCell id="NNj7HxP1JS5fpXCTZeig-88" value="" style="endArrow=classic;startArrow=classic;html=1;rounded=0;" parent="1" source="NNj7HxP1JS5fpXCTZeig-80" edge="1">
          <mxGeometry width="50" height="50" relative="1" as="geometry">
            <mxPoint x="420" y="470" as="sourcePoint" />
            <mxPoint x="480" y="430" as="targetPoint" />
            <Array as="points">
              <mxPoint x="480" y="430" />
            </Array>
          </mxGeometry>
        </mxCell>
        <mxCell id="NNj7HxP1JS5fpXCTZeig-89" value="" style="endArrow=classic;html=1;rounded=0;exitX=0.25;exitY=1;exitDx=0;exitDy=0;" parent="1" source="NNj7HxP1JS5fpXCTZeig-82" edge="1">
          <mxGeometry width="50" height="50" relative="1" as="geometry">
            <mxPoint x="490" y="530" as="sourcePoint" />
            <mxPoint x="540" y="550" as="targetPoint" />
          </mxGeometry>
        </mxCell>
        <mxCell id="NNj7HxP1JS5fpXCTZeig-90" value="&lt;font size=&quot;1&quot; style=&quot;&quot;&gt;&lt;u style=&quot;font-size: 20px;&quot;&gt;&amp;nbsp;Level 1: Interaction between Brick, Palette, Workspace, and Stack of Bricks&lt;/u&gt;&lt;/font&gt;" style="text;html=1;align=center;verticalAlign=middle;whiteSpace=wrap;rounded=0;" parent="1" vertex="1">
          <mxGeometry x="160" y="740" width="510" height="30" as="geometry" />
        </mxCell>
        <mxCell id="NNj7HxP1JS5fpXCTZeig-91" value="" style="rounded=0;whiteSpace=wrap;html=1;" parent="1" vertex="1">
          <mxGeometry x="-270" y="790" width="1450" height="760" as="geometry" />
        </mxCell>
        <mxCell id="NNj7HxP1JS5fpXCTZeig-92" value="&lt;font style=&quot;font-size: 18px;&quot;&gt;Stack of Bricks&lt;/font&gt;" style="rounded=0;whiteSpace=wrap;html=1;fillColor=#b0e3e6;strokeColor=#0e8088;" parent="1" vertex="1">
          <mxGeometry x="-10" y="960" width="120" height="60" as="geometry" />
        </mxCell>
        <mxCell id="NNj7HxP1JS5fpXCTZeig-93" value="&lt;font style=&quot;font-size: 18px;&quot;&gt;Brick&lt;/font&gt;" style="rounded=0;whiteSpace=wrap;html=1;fillColor=#b0e3e6;strokeColor=#0e8088;" parent="1" vertex="1">
          <mxGeometry x="-80" y="1360" width="120" height="60" as="geometry" />
        </mxCell>
        <mxCell id="NNj7HxP1JS5fpXCTZeig-94" value="&lt;font style=&quot;font-size: 18px;&quot;&gt;Palette&lt;/font&gt;" style="rounded=0;whiteSpace=wrap;html=1;fillColor=#b0e3e6;strokeColor=#0e8088;" parent="1" vertex="1">
          <mxGeometry x="870" y="920" width="120" height="60" as="geometry" />
        </mxCell>
        <mxCell id="NNj7HxP1JS5fpXCTZeig-95" value="&lt;font style=&quot;font-size: 18px;&quot;&gt;Workspace&lt;/font&gt;" style="rounded=0;whiteSpace=wrap;html=1;fillColor=#b0e3e6;strokeColor=#0e8088;" parent="1" vertex="1">
          <mxGeometry x="900" y="1300" width="120" height="60" as="geometry" />
        </mxCell>
        <mxCell id="SzSeZ3XUKCyUEsrnpU2V-1" value="&lt;font style=&quot;font-size: 18px;&quot;&gt;Config&lt;/font&gt;" style="shape=internalStorage;whiteSpace=wrap;html=1;backgroundOutline=1;dx=10;dy=10;" vertex="1" parent="1">
          <mxGeometry x="-260" y="1500" width="70" height="40" as="geometry" />
        </mxCell>
        <mxCell id="SzSeZ3XUKCyUEsrnpU2V-2" value="" style="endArrow=classic;startArrow=classic;html=1;rounded=0;exitX=1;exitY=0;exitDx=0;exitDy=0;entryX=0;entryY=1;entryDx=0;entryDy=0;" edge="1" parent="1" source="SzSeZ3XUKCyUEsrnpU2V-1" target="NNj7HxP1JS5fpXCTZeig-93">
          <mxGeometry width="50" height="50" relative="1" as="geometry">
            <mxPoint x="-170" y="1510" as="sourcePoint" />
            <mxPoint x="-120" y="1460" as="targetPoint" />
          </mxGeometry>
        </mxCell>
        <mxCell id="SzSeZ3XUKCyUEsrnpU2V-3" value="&lt;font style=&quot;font-size: 16px;&quot;&gt;Add Brick properties&lt;/font&gt;" style="ellipse;whiteSpace=wrap;html=1;fillColor=#fad7ac;strokeColor=#b46504;" vertex="1" parent="1">
          <mxGeometry x="-180" y="1420" width="80" height="60" as="geometry" />
        </mxCell>
        <mxCell id="SzSeZ3XUKCyUEsrnpU2V-4" value="&lt;font style=&quot;font-size: 18px;&quot;&gt;Config&lt;/font&gt;" style="shape=internalStorage;whiteSpace=wrap;html=1;backgroundOutline=1;dx=10;dy=10;" vertex="1" parent="1">
          <mxGeometry x="1080" y="820" width="70" height="40" as="geometry" />
        </mxCell>
        <mxCell id="SzSeZ3XUKCyUEsrnpU2V-5" value="" style="endArrow=classic;html=1;rounded=0;exitX=0;exitY=0.75;exitDx=0;exitDy=0;entryX=1;entryY=0.133;entryDx=0;entryDy=0;entryPerimeter=0;" edge="1" parent="1" source="SzSeZ3XUKCyUEsrnpU2V-4" target="NNj7HxP1JS5fpXCTZeig-94">
          <mxGeometry width="50" height="50" relative="1" as="geometry">
            <mxPoint x="1060" y="980" as="sourcePoint" />
            <mxPoint x="1110" y="930" as="targetPoint" />
          </mxGeometry>
        </mxCell>
        <mxCell id="SzSeZ3XUKCyUEsrnpU2V-6" value="&lt;font style=&quot;font-size: 16px;&quot;&gt;Load Brick list&lt;/font&gt;" style="ellipse;whiteSpace=wrap;html=1;fillColor=#fad7ac;strokeColor=#b46504;" vertex="1" parent="1">
          <mxGeometry x="990" y="850" width="90" height="60" as="geometry" />
        </mxCell>
        <mxCell id="SzSeZ3XUKCyUEsrnpU2V-8" value="&lt;font style=&quot;font-size: 16px;&quot;&gt;Brick to add in Wrokspace&lt;/font&gt;" style="rounded=1;whiteSpace=wrap;html=1;fillColor=#fad9d5;strokeColor=#ae4132;" vertex="1" parent="1">
          <mxGeometry x="610" y="1000" width="120" height="60" as="geometry" />
        </mxCell>
        <mxCell id="SzSeZ3XUKCyUEsrnpU2V-9" value="" style="endArrow=classic;html=1;rounded=0;exitX=0;exitY=1;exitDx=0;exitDy=0;entryX=1;entryY=0;entryDx=0;entryDy=0;" edge="1" parent="1" source="NNj7HxP1JS5fpXCTZeig-94" target="SzSeZ3XUKCyUEsrnpU2V-8">
          <mxGeometry width="50" height="50" relative="1" as="geometry">
            <mxPoint x="920" y="1070" as="sourcePoint" />
            <mxPoint x="970" y="1020" as="targetPoint" />
          </mxGeometry>
        </mxCell>
        <mxCell id="SzSeZ3XUKCyUEsrnpU2V-10" value="" style="endArrow=classic;html=1;rounded=0;exitX=0.5;exitY=1;exitDx=0;exitDy=0;entryX=0.5;entryY=0;entryDx=0;entryDy=0;" edge="1" parent="1" source="SzSeZ3XUKCyUEsrnpU2V-8" target="SzSeZ3XUKCyUEsrnpU2V-21">
          <mxGeometry width="50" height="50" relative="1" as="geometry">
            <mxPoint x="780" y="1190" as="sourcePoint" />
            <mxPoint x="830" y="1140" as="targetPoint" />
          </mxGeometry>
        </mxCell>
        <mxCell id="SzSeZ3XUKCyUEsrnpU2V-11" value="&lt;span style=&quot;font-size: 16px;&quot;&gt;Send brick coordinates&lt;/span&gt;" style="ellipse;whiteSpace=wrap;html=1;fillColor=#fad7ac;strokeColor=#b46504;" vertex="1" parent="1">
          <mxGeometry x="690" y="1089" width="120" height="80" as="geometry" />
        </mxCell>
        <mxCell id="SzSeZ3XUKCyUEsrnpU2V-13" value="&lt;font style=&quot;font-size: 16px;&quot;&gt;Add the brick whos SVG has been dragged from Palette&lt;/font&gt;" style="rounded=1;whiteSpace=wrap;html=1;fillColor=#fad9d5;strokeColor=#ae4132;" vertex="1" parent="1">
          <mxGeometry x="140" y="1280" width="140" height="80" as="geometry" />
        </mxCell>
        <mxCell id="SzSeZ3XUKCyUEsrnpU2V-14" value="" style="endArrow=classic;html=1;rounded=0;entryX=0;entryY=1;entryDx=0;entryDy=0;" edge="1" parent="1" target="SzSeZ3XUKCyUEsrnpU2V-13">
          <mxGeometry width="50" height="50" relative="1" as="geometry">
            <mxPoint x="40" y="1360" as="sourcePoint" />
            <mxPoint x="90" y="1310" as="targetPoint" />
          </mxGeometry>
        </mxCell>
        <mxCell id="SzSeZ3XUKCyUEsrnpU2V-16" value="" style="endArrow=classic;html=1;rounded=0;entryX=0;entryY=0.5;entryDx=0;entryDy=0;" edge="1" parent="1" source="SzSeZ3XUKCyUEsrnpU2V-15" target="SzSeZ3XUKCyUEsrnpU2V-21">
          <mxGeometry width="50" height="50" relative="1" as="geometry">
            <mxPoint x="280" y="1340" as="sourcePoint" />
            <mxPoint x="700" y="1390" as="targetPoint" />
          </mxGeometry>
        </mxCell>
        <mxCell id="SzSeZ3XUKCyUEsrnpU2V-17" value="" style="endArrow=classic;html=1;rounded=0;entryX=0;entryY=0.5;entryDx=0;entryDy=0;" edge="1" parent="1" target="SzSeZ3XUKCyUEsrnpU2V-15">
          <mxGeometry width="50" height="50" relative="1" as="geometry">
            <mxPoint x="280" y="1340" as="sourcePoint" />
            <mxPoint x="870" y="1405" as="targetPoint" />
          </mxGeometry>
        </mxCell>
        <mxCell id="SzSeZ3XUKCyUEsrnpU2V-15" value="&lt;font style=&quot;font-size: 16px;&quot;&gt;Send Brick Data&lt;/font&gt;" style="ellipse;whiteSpace=wrap;html=1;fillColor=#fad7ac;strokeColor=#b46504;" vertex="1" parent="1">
          <mxGeometry x="450" y="1330" width="120" height="80" as="geometry" />
        </mxCell>
        <mxCell id="SzSeZ3XUKCyUEsrnpU2V-19" value="" style="endArrow=classic;html=1;rounded=0;exitX=0;exitY=1;exitDx=0;exitDy=0;" edge="1" parent="1" source="SzSeZ3XUKCyUEsrnpU2V-18" target="SzSeZ3XUKCyUEsrnpU2V-13">
          <mxGeometry width="50" height="50" relative="1" as="geometry">
            <mxPoint x="600" y="1060" as="sourcePoint" />
            <mxPoint x="650" y="1010" as="targetPoint" />
          </mxGeometry>
        </mxCell>
        <mxCell id="SzSeZ3XUKCyUEsrnpU2V-20" value="" style="endArrow=classic;html=1;rounded=0;exitX=0;exitY=1;exitDx=0;exitDy=0;" edge="1" parent="1" source="SzSeZ3XUKCyUEsrnpU2V-8" target="SzSeZ3XUKCyUEsrnpU2V-18">
          <mxGeometry width="50" height="50" relative="1" as="geometry">
            <mxPoint x="690" y="1080" as="sourcePoint" />
            <mxPoint x="280" y="1285" as="targetPoint" />
          </mxGeometry>
        </mxCell>
        <mxCell id="SzSeZ3XUKCyUEsrnpU2V-18" value="&lt;font style=&quot;font-size: 16px;&quot;&gt;Send selected brick ID&lt;/font&gt;" style="ellipse;whiteSpace=wrap;html=1;fillColor=#fad7ac;strokeColor=#b46504;" vertex="1" parent="1">
          <mxGeometry x="420" y="1120" width="120" height="80" as="geometry" />
        </mxCell>
        <mxCell id="SzSeZ3XUKCyUEsrnpU2V-21" value="&lt;font style=&quot;font-size: 16px;&quot;&gt;Create Brick at x,y&lt;/font&gt;" style="rounded=1;whiteSpace=wrap;html=1;fillColor=#fad9d5;strokeColor=#ae4132;" vertex="1" parent="1">
          <mxGeometry x="730" y="1200" width="120" height="60" as="geometry" />
        </mxCell>
        <mxCell id="SzSeZ3XUKCyUEsrnpU2V-22" value="" style="endArrow=classic;html=1;rounded=0;exitX=0;exitY=0.5;exitDx=0;exitDy=0;entryX=1;entryY=0.5;entryDx=0;entryDy=0;" edge="1" parent="1" source="NNj7HxP1JS5fpXCTZeig-95" target="SzSeZ3XUKCyUEsrnpU2V-21">
          <mxGeometry width="50" height="50" relative="1" as="geometry">
            <mxPoint x="840" y="1500" as="sourcePoint" />
            <mxPoint x="890" y="1450" as="targetPoint" />
          </mxGeometry>
        </mxCell>
        <mxCell id="SzSeZ3XUKCyUEsrnpU2V-23" value="&lt;font style=&quot;font-size: 16px;&quot;&gt;Config&lt;/font&gt;" style="shape=internalStorage;whiteSpace=wrap;html=1;backgroundOutline=1;dx=10;dy=10;" vertex="1" parent="1">
          <mxGeometry x="-250" y="820" width="80" height="40" as="geometry" />
        </mxCell>
        <mxCell id="SzSeZ3XUKCyUEsrnpU2V-24" value="" style="endArrow=classic;html=1;rounded=0;exitX=1;exitY=1;exitDx=0;exitDy=0;entryX=0;entryY=0;entryDx=0;entryDy=0;" edge="1" parent="1" source="SzSeZ3XUKCyUEsrnpU2V-23" target="NNj7HxP1JS5fpXCTZeig-92">
          <mxGeometry width="50" height="50" relative="1" as="geometry">
            <mxPoint x="-150" y="940" as="sourcePoint" />
            <mxPoint x="-100" y="890" as="targetPoint" />
          </mxGeometry>
        </mxCell>
        <mxCell id="SzSeZ3XUKCyUEsrnpU2V-25" value="&lt;font style=&quot;font-size: 15px;&quot;&gt;Add bounding boxes&lt;/font&gt;" style="ellipse;whiteSpace=wrap;html=1;fillColor=#fad7ac;strokeColor=#b46504;" vertex="1" parent="1">
          <mxGeometry x="-150" y="870" width="100" height="70" as="geometry" />
        </mxCell>
        <mxCell id="SzSeZ3XUKCyUEsrnpU2V-26" value="&lt;font style=&quot;font-size: 16px;&quot;&gt;Scale/Clone Bricks&lt;/font&gt;" style="rounded=1;whiteSpace=wrap;html=1;fillColor=#fad9d5;strokeColor=#ae4132;" vertex="1" parent="1">
          <mxGeometry x="-160" y="1080" width="120" height="60" as="geometry" />
        </mxCell>
        <mxCell id="SzSeZ3XUKCyUEsrnpU2V-27" value="&lt;span style=&quot;font-size: 18px;&quot;&gt;Delete and Undo/Redo&lt;/span&gt;" style="rounded=1;whiteSpace=wrap;html=1;fillColor=#fad9d5;strokeColor=#ae4132;" vertex="1" parent="1">
          <mxGeometry x="210" y="880" width="120" height="60" as="geometry" />
        </mxCell>
        <mxCell id="SzSeZ3XUKCyUEsrnpU2V-29" value="" style="endArrow=classic;html=1;rounded=0;exitX=0;exitY=1;exitDx=0;exitDy=0;entryX=1;entryY=0;entryDx=0;entryDy=0;" edge="1" parent="1" source="NNj7HxP1JS5fpXCTZeig-92" target="SzSeZ3XUKCyUEsrnpU2V-26">
          <mxGeometry width="50" height="50" relative="1" as="geometry">
            <mxPoint x="10" y="1090" as="sourcePoint" />
            <mxPoint x="60" y="1040" as="targetPoint" />
          </mxGeometry>
        </mxCell>
        <mxCell id="SzSeZ3XUKCyUEsrnpU2V-30" value="&lt;font style=&quot;font-size: 16px;&quot;&gt;Position of all bricks&lt;/font&gt;" style="rounded=1;whiteSpace=wrap;html=1;fillColor=#fad9d5;strokeColor=#ae4132;" vertex="1" parent="1">
          <mxGeometry x="110" y="1080" width="120" height="60" as="geometry" />
        </mxCell>
        <mxCell id="SzSeZ3XUKCyUEsrnpU2V-31" value="" style="endArrow=classic;html=1;rounded=0;exitX=1;exitY=1;exitDx=0;exitDy=0;entryX=0;entryY=0.133;entryDx=0;entryDy=0;entryPerimeter=0;" edge="1" parent="1" source="NNj7HxP1JS5fpXCTZeig-92" target="SzSeZ3XUKCyUEsrnpU2V-30">
          <mxGeometry width="50" height="50" relative="1" as="geometry">
            <mxPoint x="210" y="1050" as="sourcePoint" />
            <mxPoint x="260" y="1000" as="targetPoint" />
            <Array as="points" />
          </mxGeometry>
        </mxCell>
        <mxCell id="SzSeZ3XUKCyUEsrnpU2V-33" value="&lt;font style=&quot;font-size: 15px;&quot;&gt;Workspace State&lt;/font&gt;" style="shape=internalStorage;whiteSpace=wrap;html=1;backgroundOutline=1;dx=10;dy=10;" vertex="1" parent="1">
          <mxGeometry x="1070" y="1470" width="90" height="60" as="geometry" />
        </mxCell>
        <mxCell id="SzSeZ3XUKCyUEsrnpU2V-34" value="&lt;font style=&quot;font-size: 15px;&quot;&gt;Send workspace data&lt;/font&gt;" style="ellipse;whiteSpace=wrap;html=1;fillColor=#fad7ac;strokeColor=#b46504;" vertex="1" parent="1">
          <mxGeometry x="990" y="1380" width="100" height="60" as="geometry" />
        </mxCell>
        <mxCell id="SzSeZ3XUKCyUEsrnpU2V-39" value="&lt;font style=&quot;font-size: 18px;&quot;&gt;Delete and Undo/Redo&lt;/font&gt;" style="rounded=1;whiteSpace=wrap;html=1;fillColor=#fad9d5;strokeColor=#ae4132;" vertex="1" parent="1">
          <mxGeometry x="940" y="1050" width="120" height="60" as="geometry" />
        </mxCell>
        <mxCell id="SzSeZ3XUKCyUEsrnpU2V-40" value="" style="endArrow=classic;startArrow=classic;html=1;rounded=0;exitX=0.892;exitY=0.983;exitDx=0;exitDy=0;exitPerimeter=0;entryX=0;entryY=0;entryDx=0;entryDy=0;" edge="1" parent="1" source="NNj7HxP1JS5fpXCTZeig-95" target="SzSeZ3XUKCyUEsrnpU2V-33">
          <mxGeometry width="50" height="50" relative="1" as="geometry">
            <mxPoint x="1020" y="1430" as="sourcePoint" />
            <mxPoint x="1070" y="1380" as="targetPoint" />
          </mxGeometry>
        </mxCell>
        <mxCell id="SzSeZ3XUKCyUEsrnpU2V-41" value="" style="endArrow=classic;startArrow=classic;html=1;rounded=0;entryX=0.367;entryY=0.983;entryDx=0;entryDy=0;entryPerimeter=0;exitX=0.692;exitY=-0.083;exitDx=0;exitDy=0;exitPerimeter=0;" edge="1" parent="1" source="NNj7HxP1JS5fpXCTZeig-95" target="SzSeZ3XUKCyUEsrnpU2V-39">
          <mxGeometry width="50" height="50" relative="1" as="geometry">
            <mxPoint x="960" y="1280" as="sourcePoint" />
            <mxPoint x="1010" y="1230" as="targetPoint" />
          </mxGeometry>
        </mxCell>
        <mxCell id="SzSeZ3XUKCyUEsrnpU2V-43" value="" style="endArrow=classic;startArrow=classic;html=1;rounded=0;exitX=1;exitY=0.5;exitDx=0;exitDy=0;" edge="1" parent="1" source="SzSeZ3XUKCyUEsrnpU2V-27" target="SzSeZ3XUKCyUEsrnpU2V-39">
          <mxGeometry width="50" height="50" relative="1" as="geometry">
            <mxPoint x="460" y="920" as="sourcePoint" />
            <mxPoint x="510" y="870" as="targetPoint" />
            <Array as="points">
              <mxPoint x="680" y="930" />
            </Array>
          </mxGeometry>
        </mxCell>
        <mxCell id="SzSeZ3XUKCyUEsrnpU2V-44" value="" style="endArrow=classic;html=1;rounded=0;entryX=0;entryY=1;entryDx=0;entryDy=0;" edge="1" parent="1" target="SzSeZ3XUKCyUEsrnpU2V-27">
          <mxGeometry width="50" height="50" relative="1" as="geometry">
            <mxPoint x="110" y="960" as="sourcePoint" />
            <mxPoint x="160" y="910" as="targetPoint" />
          </mxGeometry>
        </mxCell>
        <mxCell id="SzSeZ3XUKCyUEsrnpU2V-45" value="&lt;font style=&quot;font-size: 15px;&quot;&gt;Send data of the dateled bricks&lt;/font&gt;" style="ellipse;whiteSpace=wrap;html=1;fillColor=#fad7ac;strokeColor=#b46504;" vertex="1" parent="1">
          <mxGeometry x="610" y="900" width="110" height="70" as="geometry" />
        </mxCell>
        <mxCell id="SzSeZ3XUKCyUEsrnpU2V-46" value="&lt;font style=&quot;font-size: 16px;&quot;&gt;Scale / Clone Bricks&lt;/font&gt;" style="rounded=1;whiteSpace=wrap;html=1;fillColor=#fad9d5;strokeColor=#ae4132;" vertex="1" parent="1">
          <mxGeometry x="444" y="1480" width="120" height="60" as="geometry" />
        </mxCell>
        <mxCell id="SzSeZ3XUKCyUEsrnpU2V-48" value="&lt;font style=&quot;font-size: 16px;&quot;&gt;Send data (increase dicrease etc)&lt;/font&gt;" style="ellipse;whiteSpace=wrap;html=1;fillColor=#fad7ac;strokeColor=#b46504;" vertex="1" parent="1">
          <mxGeometry x="110" y="1420" width="120" height="80" as="geometry" />
        </mxCell>
        <mxCell id="SzSeZ3XUKCyUEsrnpU2V-50" value="" style="endArrow=classic;startArrow=classic;html=1;rounded=0;exitX=0;exitY=0.5;exitDx=0;exitDy=0;entryX=0.131;entryY=0.447;entryDx=0;entryDy=0;entryPerimeter=0;" edge="1" parent="1" source="SzSeZ3XUKCyUEsrnpU2V-46" target="NNj7HxP1JS5fpXCTZeig-91">
          <mxGeometry width="50" height="50" relative="1" as="geometry">
            <mxPoint x="-10" y="1300" as="sourcePoint" />
            <mxPoint x="40" y="1250" as="targetPoint" />
            <Array as="points">
              <mxPoint x="160" y="1470" />
            </Array>
          </mxGeometry>
        </mxCell>
        <mxCell id="SzSeZ3XUKCyUEsrnpU2V-51" value="" style="endArrow=classic;html=1;rounded=0;exitX=0;exitY=1;exitDx=0;exitDy=0;entryX=1;entryY=0;entryDx=0;entryDy=0;" edge="1" parent="1" source="NNj7HxP1JS5fpXCTZeig-95" target="SzSeZ3XUKCyUEsrnpU2V-46">
          <mxGeometry width="50" height="50" relative="1" as="geometry">
            <mxPoint x="770" y="1470" as="sourcePoint" />
            <mxPoint x="820" y="1420" as="targetPoint" />
          </mxGeometry>
        </mxCell>
        <mxCell id="SzSeZ3XUKCyUEsrnpU2V-53" value="&lt;font style=&quot;font-size: 16px;&quot;&gt;Connect Bricks to form stack&lt;/font&gt;" style="rounded=1;whiteSpace=wrap;html=1;fillColor=#fad9d5;strokeColor=#ae4132;" vertex="1" parent="1">
          <mxGeometry x="660" y="1330" width="120" height="60" as="geometry" />
        </mxCell>
        <mxCell id="SzSeZ3XUKCyUEsrnpU2V-54" value="&lt;div&gt;&lt;br&gt;&lt;/div&gt;&lt;div&gt;&lt;br&gt;&lt;/div&gt;&lt;div&gt;&lt;br&gt;&lt;/div&gt;&lt;div&gt;&lt;br&gt;&lt;/div&gt;&lt;div&gt;&lt;br&gt;&lt;/div&gt;&lt;div&gt;&lt;br&gt;&lt;/div&gt;&lt;div&gt;&lt;br&gt;&lt;/div&gt;&lt;div&gt;&lt;br&gt;&lt;/div&gt;&lt;div&gt;&lt;br&gt;&lt;/div&gt;&lt;div&gt;&lt;br&gt;&lt;/div&gt;&lt;div&gt;&lt;br&gt;&lt;/div&gt;&lt;div&gt;&lt;br&gt;&lt;/div&gt;&lt;div&gt;&lt;br&gt;&lt;/div&gt;&lt;div&gt;&lt;br&gt;&lt;/div&gt;&lt;div&gt;&lt;br&gt;&lt;/div&gt;&lt;div&gt;&lt;br&gt;&lt;/div&gt;&lt;div&gt;&lt;br&gt;&lt;/div&gt;&lt;div&gt;&lt;br&gt;&lt;/div&gt;&lt;div&gt;&lt;br&gt;&lt;/div&gt;&lt;div&gt;&lt;br&gt;&lt;/div&gt;&lt;div&gt;&lt;br&gt;&lt;/div&gt;&lt;div&gt;&lt;br&gt;&lt;/div&gt;&lt;div&gt;&lt;br&gt;&lt;/div&gt;&lt;div&gt;&lt;br&gt;&lt;/div&gt;&lt;div&gt;&lt;br&gt;&lt;/div&gt;&lt;div&gt;&lt;br&gt;&lt;/div&gt;&lt;div&gt;&lt;br&gt;&lt;/div&gt;&lt;div&gt;&lt;br&gt;&lt;/div&gt;&lt;div&gt;&lt;br&gt;&lt;/div&gt;&lt;div&gt;&lt;br&gt;&lt;/div&gt;&lt;div&gt;&lt;br&gt;&lt;/div&gt;&lt;div&gt;&lt;br&gt;&lt;/div&gt;&lt;div&gt;&lt;br&gt;&lt;/div&gt;&lt;div&gt;&lt;br&gt;&lt;/div&gt;&lt;div&gt;&lt;br&gt;&lt;/div&gt;&lt;div&gt;&lt;br&gt;&lt;/div&gt;&lt;div&gt;&lt;br&gt;&lt;/div&gt;&lt;div&gt;&lt;br&gt;&lt;/div&gt;&lt;div&gt;&lt;br&gt;&lt;/div&gt;&lt;div&gt;&lt;br&gt;&lt;/div&gt;&lt;div&gt;&lt;br&gt;&lt;/div&gt;&lt;div&gt;&lt;br&gt;&lt;/div&gt;&lt;div&gt;&lt;br&gt;&lt;/div&gt;&lt;div&gt;&lt;br&gt;&lt;/div&gt;&lt;div&gt;&lt;br&gt;&lt;/div&gt;&lt;div&gt;&lt;br&gt;&lt;/div&gt;&lt;div&gt;&lt;br&gt;&lt;/div&gt;&lt;div&gt;&lt;br&gt;&lt;/div&gt;&lt;div&gt;&lt;br&gt;&lt;/div&gt;&lt;div&gt;&lt;br&gt;&lt;/div&gt;&lt;div&gt;&lt;br&gt;&lt;/div&gt;&lt;div&gt;&lt;br&gt;&lt;/div&gt;&lt;div&gt;&lt;br&gt;&lt;/div&gt;&lt;div&gt;&lt;br&gt;&lt;/div&gt;&lt;div&gt;&lt;br&gt;&lt;/div&gt;&lt;div&gt;&lt;br&gt;&lt;/div&gt;&lt;div&gt;&lt;br&gt;&lt;/div&gt;&lt;div&gt;&lt;br&gt;&lt;/div&gt;&lt;div&gt;&lt;br&gt;&lt;/div&gt;&lt;div&gt;&lt;br&gt;&lt;/div&gt;&lt;div&gt;&lt;br&gt;&lt;/div&gt;&lt;div&gt;&lt;br&gt;&lt;/div&gt;&lt;div&gt;&lt;br&gt;&lt;/div&gt;&lt;div&gt;&lt;br&gt;&lt;/div&gt;&lt;div&gt;&lt;br&gt;&lt;/div&gt;&lt;div&gt;&lt;br&gt;&lt;/div&gt;&lt;div&gt;&lt;br&gt;&lt;/div&gt;&lt;div&gt;&lt;br&gt;&lt;/div&gt;&lt;div&gt;&lt;br&gt;&lt;/div&gt;&lt;div&gt;&lt;br&gt;&lt;/div&gt;&lt;div&gt;&lt;br&gt;&lt;/div&gt;&lt;div&gt;&lt;br&gt;&lt;/div&gt;&lt;div&gt;&lt;br&gt;&lt;/div&gt;&lt;div&gt;&lt;br&gt;&lt;/div&gt;&lt;div&gt;&lt;br&gt;&lt;/div&gt;&lt;div&gt;&lt;br&gt;&lt;/div&gt;&lt;div&gt;&lt;br&gt;&lt;/div&gt;&lt;div&gt;&lt;br&gt;&lt;/div&gt;" style="endArrow=classic;html=1;rounded=0;exitX=0;exitY=0.75;exitDx=0;exitDy=0;entryX=0.425;entryY=0.05;entryDx=0;entryDy=0;entryPerimeter=0;" edge="1" parent="1" source="NNj7HxP1JS5fpXCTZeig-95" target="SzSeZ3XUKCyUEsrnpU2V-58">
          <mxGeometry width="50" height="50" relative="1" as="geometry">
            <mxPoint x="850" y="1480" as="sourcePoint" />
            <mxPoint x="900" y="1430" as="targetPoint" />
          </mxGeometry>
        </mxCell>
        <mxCell id="SzSeZ3XUKCyUEsrnpU2V-55" value="" style="endArrow=classic;html=1;rounded=0;exitX=0;exitY=0.75;exitDx=0;exitDy=0;entryX=1.058;entryY=0.383;entryDx=0;entryDy=0;entryPerimeter=0;" edge="1" parent="1" source="NNj7HxP1JS5fpXCTZeig-95" target="SzSeZ3XUKCyUEsrnpU2V-53">
          <mxGeometry width="50" height="50" relative="1" as="geometry">
            <mxPoint x="810" y="1370" as="sourcePoint" />
            <mxPoint x="860" y="1320" as="targetPoint" />
          </mxGeometry>
        </mxCell>
        <mxCell id="SzSeZ3XUKCyUEsrnpU2V-56" value="" style="endArrow=classic;html=1;rounded=0;exitX=1;exitY=1;exitDx=0;exitDy=0;entryX=0.017;entryY=0.117;entryDx=0;entryDy=0;entryPerimeter=0;" edge="1" parent="1" source="SzSeZ3XUKCyUEsrnpU2V-30" target="SzSeZ3XUKCyUEsrnpU2V-53">
          <mxGeometry width="50" height="50" relative="1" as="geometry">
            <mxPoint x="310" y="1230" as="sourcePoint" />
            <mxPoint x="360" y="1180" as="targetPoint" />
          </mxGeometry>
        </mxCell>
        <mxCell id="SzSeZ3XUKCyUEsrnpU2V-57" value="&lt;font style=&quot;font-size: 16px;&quot;&gt;Send Stack Properties&lt;/font&gt;" style="ellipse;whiteSpace=wrap;html=1;fillColor=#fad7ac;strokeColor=#b46504;" vertex="1" parent="1">
          <mxGeometry x="410" y="1220" width="120" height="80" as="geometry" />
        </mxCell>
        <mxCell id="SzSeZ3XUKCyUEsrnpU2V-58" value="&lt;font style=&quot;font-size: 16px;&quot;&gt;Disconnect Bricks&lt;/font&gt;" style="rounded=1;whiteSpace=wrap;html=1;fillColor=#fad9d5;strokeColor=#ae4132;" vertex="1" parent="1">
          <mxGeometry x="790" y="1440" width="120" height="60" as="geometry" />
        </mxCell>
      </root>
    </mxGraphModel>
  </diagram>
</mxfile>
